# xmcd CD database file
#
# Track frame offsets:
#	150
#	36622
#	82055
#	145777
#	201619
#	235042
#
# Disc length: 3661 seconds
#
# Revision: 0
# Processed by: cddbd v1.5.2PL0 Copyright (c) Steve Scherf et al.
# Submitted via: CDex 1.51
#
DISCID=570e4b06
DTITLE=Liquid Mind - Liquid Mind X - Meditation
DYEAR=2012
DGENRE=New Age
TTITLE0=In Fields Of Peace
TTITLE1=Meditation
TTITLE2=In The Silence Of My Soul
TTITLE3=When Time Slows
TTITLE4=Soft Focus
TTITLE5=The Joy Of Quiet
EXTD=YEAR: 2012
EXTT0=
EXTT1=
EXTT2=
EXTT3=
EXTT4=
EXTT5=
PLAYORDER=
